<svg width="21" height="20" viewBox="0 0 21 20" fill="none" xmlns="http://www.w3.org/2000/svg">
<g id="cash_icon 1" clip-path="url(#clip0_1_20)">
<g id="Group">
<path id="Vector" d="M19.2536 5.59925H3.86715C3.67771 5.59925 3.49603 5.524 3.36208 5.39004C3.22812 5.25609 3.15287 5.07441 3.15287 4.88497C3.15287 4.69553 3.22812 4.51384 3.36208 4.37989C3.49603 4.24594 3.67771 4.17068 3.86715 4.17068H16.4186V1.49211C16.4186 1.1114 16.2479 0.756397 15.9507 0.51854C15.8047 0.401366 15.6341 0.318671 15.4517 0.27662C15.2693 0.234569 15.0797 0.234248 14.8971 0.275682L1.47287 3.28997C1.19617 3.35114 0.948759 3.50519 0.771768 3.7265C0.594777 3.9478 0.498875 4.22302 0.50001 4.50639V18.5085C0.50001 19.1957 1.0593 19.7557 1.74644 19.7557H19.2536C19.9407 19.7557 20.5 19.1964 20.5 18.5085V6.84568C20.5 6.15854 19.9407 5.59925 19.2536 5.59925ZM17.0043 13.9507C16.3364 13.9507 15.7936 13.4071 15.7936 12.7392C15.7936 12.0714 16.3371 11.5278 17.0043 11.5278C17.6729 11.5278 18.2157 12.0714 18.2157 12.7392C18.2157 13.4071 17.6729 13.9507 17.0043 13.9507Z" fill="white"/>
</g>
</g>
<defs>
<clipPath id="clip0_1_20">
<rect width="20" height="20" fill="white" transform="translate(0.5)"/>
</clipPath>
</defs>
</svg>
