<svg width="30" height="30" viewBox="0 0 30 30" fill="none" xmlns="http://www.w3.org/2000/svg">
<g id="gas_station_icon 1" clip-path="url(#clip0_1_193)">
<g id="Group">
<path id="Vector" d="M3.75 0C2.38662 0 1.25 1.13662 1.25 2.5V28.75C1.25007 29.4403 1.80967 29.9999 2.5 30H17.5C18.1903 29.9999 18.7499 29.4403 18.75 28.75V23.125C18.75 22.7798 19.0298 22.5 19.375 22.5H20C20.7052 22.5 21.25 23.0448 21.25 23.75V25C21.25 27.0563 22.9438 28.75 25 28.75C27.0563 28.75 28.75 27.0563 28.75 25V8.75C28.75 7.57075 28.1944 6.45706 27.251 5.74951L23.2495 2.74902C22.6388 2.29109 21.8582 2.51259 21.499 3.00049C21.0895 3.55675 21.1974 4.33718 21.7505 4.75097L23.2495 5.87402C23.5648 6.11016 23.7503 6.48111 23.75 6.875V10C23.75 11.153 24.5589 12.1419 25.6323 12.4219C25.9656 12.5088 26.25 12.7798 26.25 13.125V25C26.25 25.7051 25.7052 26.25 25 26.25C24.2949 26.25 23.75 25.7051 23.75 25V23.75C23.75 21.6937 22.0563 20 20 20H19.375C19.0298 20 18.75 19.7202 18.75 19.375V2.5C18.75 1.13662 17.6134 3.75e-08 16.25 3.75e-08L3.75 0ZM4.375 2.5H15.625C15.9713 2.5 16.25 2.77875 16.25 3.125V11.875C16.25 12.2212 15.9713 12.5 15.625 12.5H4.375C4.02875 12.5 3.75 12.2212 3.75 11.875V3.125C3.75 2.77875 4.02875 2.5 4.375 2.5Z" fill="white"/>
</g>
</g>
<defs>
<clipPath id="clip0_1_193">
<rect width="30" height="30" fill="white"/>
</clipPath>
</defs>
</svg>
